<svg version="1.1" id="鍥惧眰_1" xmlns:xlink="http://www.w3.org/1999/xlink" x="0px" y="0px" width="44px" height="44px" viewBox="0 0 44 44" enable-background="new 0 0 44 44" xml:space="preserve" xmlns="http://www.w3.org/2000/svg"><defs><style type="text/css"></style></defs>
<g stroke="none" fill="#000000" stroke-width="1px">
	<g stroke="none" fill="#000000" stroke-width="1px">
		<path fill="#73737c" d="M38.823,39.083l-2.118-0.481l2.887-12.719c0.151-0.913,0.236-1.912,0.236-2.908
			c0-9.818-7.987-17.805-17.806-17.805S4.217,13.157,4.217,22.975c0,0.974,0.078,1.956,0.236,2.916L7.46,38.463l-2.111,0.506
			l-3.023-12.65c-0.191-1.149-0.281-2.25-0.281-3.343C2.045,11.96,11.008,3,22.022,3S42,11.96,42,22.975
			c0,1.119-0.097,2.239-0.281,3.329L38.823,39.083z" stroke="none" stroke-width="1px"></path>
		<polygon fill="#73737c" points="7.789,26.123 11.063,38.716 17.362,41.863 14.085,29.397 		" stroke="none" stroke-width="1px"></polygon>
		<polygon fill="#73737c" points="36.253,26.123 32.978,38.716 26.682,41.863 29.955,29.397 		" stroke="none" stroke-width="1px"></polygon>
	</g>
</g>
</svg>