<?xml version="1.0" encoding="utf-8"?>
<!-- Generator: Adobe Illustrator 23.0.2, SVG Export Plug-In . SVG Version: 6.00 Build 0)  -->
<svg version="1.1" id="Слой_2" xmlns="http://www.w3.org/2000/svg" xmlns:xlink="http://www.w3.org/1999/xlink" x="0px" y="0px"
	 viewBox="0 0 44 44" style="enable-background:new 0 0 44 44;" xml:space="preserve">
<style type="text/css">
	.st0{fill:#808080;}
	.st1{fill:#666666;stroke:#808080;stroke-miterlimit:10;}
</style>
<path class="st0" d="M22.4,7c0,0-0.1,0-0.3,0c-0.2,0-0.3,0-0.3,0c-1.3,0-2.3,0.2-3,0.4c-2.1,0.4-3.6,1.1-3.9,1.6
	c-1.2,0.6-2.3,1.4-3.2,2.5c-1,1.3-3.2,4.1-4.1,8.6c-0.7,3.4-0.3,6.2,0,7.8c0,0,0.1,0.2,0.3,0.2c0.3,0,0.4-0.3,0.4-0.3v-1l0.5-0.4
	v-1.8l-0.6-0.4C8.1,23.6,8,23,8,22.2c0-0.9,0.3-2.3,0.4-2.8c0.5-1.8,1.4-4.3,3.8-7.4c0.9-1.1,2-1.9,3.2-2.5c0,0,0,0,0.1,0
	c1.2,0,2-0.3,2.5-0.5c1-0.3,2-0.7,3.9-0.7c0.1,0,0.1,0,0.2,0c0.1,0,0.1,0,0.2,0c0.4,0,0.8,0,1.1,0L23.6,7C23.2,7,22.8,7,22.4,7z
	 M20.9,8.2L20.9,8.2C21,8.2,21,8.2,20.9,8.2L20.9,8.2z M22.1,8.2L22.1,8.2C22.1,8.2,22.1,8.2,22.1,8.2L22.1,8.2z M22.3,8.2L22.3,8.2
	C22.2,8.2,22.3,8.2,22.3,8.2L22.3,8.2z"/>
<path class="st0" d="M36.9,33.2c0,0-0.1,0.2-0.3,0.2c-0.3,0-0.4-0.3-0.4-0.3v-1l-0.5-0.4v-1.8l0.6-0.4c0.1-0.4,0.2-1.1,0.2-1.8
	c0-0.9-0.3-2.3-0.4-2.8c-0.5-1.8-1.4-4.3-3.8-7.4c-1-1.2-2.2-2.1-3.5-2.7c-0.1,0-0.1,0-0.2,0c-1.2,0.1-2-0.3-2.5-0.4
	c-0.8-0.2-1.6-0.5-2.8-0.6l0.2-1.3c0.8,0.1,1.4,0.2,1.8,0.3c1.9,0.4,3.3,1,3.8,1.4c1.3,0.6,2.6,1.5,3.7,2.8c1,1.3,3.2,4.1,4.1,8.6
	C37.6,28.8,37.2,31.6,36.9,33.2z"/>
<path class="st0" d="M9.1,24.3c0-0.2,0.1-0.4,0.3-0.7c0.1-0.2,0.3-0.3,0.4-0.4c0-0.6,0-1.3,0-1.9c0,0,0-0.2,0.1-0.4
	c0.1-0.2,0.3-0.1,0.3-0.1c0.3,0,0.6,0,0.9,0v9h-1c-0.1,0-0.1-0.1-0.2-0.3c-0.1-0.3-0.1-0.6-0.1-0.7c0-0.5,0-1.1,0-1.6
	c-0.1,0-0.3,0-0.5-0.3c-0.1-0.1-0.2-0.3-0.2-0.4C9.1,25.8,9.1,25,9.1,24.3z"/>
<path class="st0" d="M12.5,20.2c0.1,0,0.3,0,0.5,0.1c1.9,1.1,1.9,9,0.1,10.1c-0.2,0.1-0.5,0.1-0.6,0.1
	C12.5,27.1,12.5,23.7,12.5,20.2z"/>
<rect x="11.3" y="20.2" class="st0" width="0.9" height="10.4"/>
<path class="st0" d="M35.6,28.6c0-0.2-0.1-0.4-0.3-0.7c-0.1-0.2-0.3-0.3-0.4-0.4c0-0.6,0-1.3,0-1.9c0,0,0-0.2-0.1-0.4
	C34.7,25,34.6,25,34.5,25c-0.3,0-0.6,0-0.9,0v9h1c0.1,0,0.1-0.1,0.2-0.3c0.1-0.3,0.1-0.6,0.1-0.7c0-0.5,0-1.1,0-1.6
	c0.1,0,0.3,0,0.5-0.3c0.1-0.1,0.2-0.3,0.2-0.4C35.6,30,35.6,29.3,35.6,28.6z"/>
<path class="st0" d="M32.2,24.5c-0.1,0-0.3,0-0.5,0.1c-1.9,1.1-1.9,9-0.1,10.1c0.2,0.1,0.5,0.1,0.6,0.1
	C32.2,31.4,32.2,27.9,32.2,24.5z"/>
<rect x="32.5" y="24.5" class="st0" width="0.9" height="10.4"/>
<path class="st1" d="M24.3,0.7c-1.5,10.3-2.5,21.1-3.6,31.7L24.3,0.7C24.3,0.7,24.3,0.7,24.3,0.7z"/>
<path class="st1" d="M20.7,32.4l-1.2,10.9C19.9,39.7,20.3,36.1,20.7,32.4z"/>
</svg>
