<?xml version="1.0" encoding="utf-8"?>
<!-- Generator: Adobe Illustrator 23.0.2, SVG Export Plug-In . SVG Version: 6.00 Build 0)  -->
<svg version="1.1" id="Слой_1" xmlns="http://www.w3.org/2000/svg" xmlns:xlink="http://www.w3.org/1999/xlink" x="0px" y="0px"
	 viewBox="0 0 44 44" style="enable-background:new 0 0 44 44;" xml:space="preserve">
<style type="text/css">
	.st0{fill:#808080;}
	.st1{fill:none;stroke:#808080;stroke-miterlimit:10;}
	.st2{fill:#666666;stroke:#808080;stroke-miterlimit:10;}
</style>
<g>
	<rect x="7.4" y="16.2" class="st0" width="3" height="3"/>
	<rect x="12.1" y="16.2" class="st0" width="3" height="3"/>
	<rect x="16.7" y="16.2" class="st0" width="3" height="3"/>
	<rect x="25.9" y="20.3" class="st0" width="3" height="3"/>
	<rect x="8.8" y="21" class="st0" width="3" height="3"/>
	<rect x="14" y="21" class="st0" width="3" height="3"/>
	<rect x="19" y="21" class="st0" width="3" height="3"/>
	<rect x="23.6" y="25.2" class="st0" width="3" height="3"/>
	<rect x="28.5" y="25.2" class="st0" width="3" height="3"/>
	<rect x="7.8" y="25.9" class="st0" width="3" height="3"/>
	<rect x="12.5" y="25.9" class="st0" width="3" height="3"/>
	<polygon class="st0" points="27.8,30 27.8,33 21.4,33 21.8,30 	"/>
	<polygon class="st0" points="22.2,25.9 21.9,28.8 17.2,28.8 17.2,25.9 	"/>
	<rect x="29.6" y="30" class="st0" width="3" height="3"/>
	<rect x="34.3" y="30" class="st0" width="3" height="3"/>
	<rect x="33.2" y="25.2" class="st0" width="3" height="3"/>
	<polygon class="st0" points="23.3,16.2 23,19.1 21.4,19.1 21.4,16.2 	"/>
	<rect x="30.5" y="20.4" class="st0" width="3" height="3"/>
	<rect x="35" y="20.4" class="st0" width="3" height="3"/>
	<path class="st0" d="M14,14.1c1.3,0,2.8,0.1,4.3,0.1v-4c-1.4,0-2.9,0-4.3,0C14,10.2,14,14.1,14,14.1z"/>
	<polygon class="st0" points="23.9,20.4 23.9,23.3 22.6,23.3 22.9,20.4 	"/>
	<path class="st0" d="M13.6,10.2c-3,0.1-5.3,0.3-4.7,1.2c0.3,0.4,0.8,2.4,1.4,2.6c0.2,0.1,1.5,0.1,3.3,0.2V10.2z"/>
	<path class="st0" d="M27.7,18.4c1.5,0,3.1-0.1,4.3-0.1v-3.9c-1.4,0-2.9,0-4.3,0V18.4z"/>
	<path class="st0" d="M27.4,14.4v4c-1.5,0-3,0-4.3,0l0.5-3.9C24.6,14.4,26,14.4,27.4,14.4z"/>
	<path class="st0" d="M24,10.3l-0.5,3.9c-0.1,0-0.3,0-0.4,0v-3.9l0,0C23.4,10.3,23.7,10.3,24,10.3z"/>
	<path class="st0" d="M22.7,10.3L22.7,10.3c-1.1,0-2.5,0-4-0.1v4c1.4,0,2.9,0,4,0V10.3z"/>
	<path class="st0" d="M32.3,14.4v3.9c1.5-0.1,2.6-0.1,2.8-0.2c0.6-0.1,1.2-2.2,1.4-2.6C37.1,14.7,35,14.5,32.3,14.4z"/>
	<path class="st1" d="M40.1,25.3c0,3.2,0.1,6.2,0.4,8.9l-2.2,1.3H21.2l2.4-20.9h13.9c0.4,0.1,1.2,0.3,1.9,0.9c0.7,0.6,1,1.3,1.1,1.6
		C40.3,19.7,40.1,22.4,40.1,25.3z"/>
	<path class="st1" d="M24,10.5l-2.4,20.9H7L4.8,30c0.2-2.7,0.4-5.7,0.4-8.9c0-2.9-0.2-5.6-0.4-8.1C5,12.7,5.3,12,6,11.4
		c0.8-0.7,1.5-0.9,1.9-0.9H24z"/>
	<path class="st2" d="M25.1,0.4c-1.6,14.2-3.3,28.5-4.9,42.7"/>
</g>
</svg>
