<?xml version="1.0" encoding="utf-8"?>
<!-- Generator: Adobe Illustrator 23.0.2, SVG Export Plug-In . SVG Version: 6.00 Build 0)  -->
<svg version="1.1" xmlns="http://www.w3.org/2000/svg" xmlns:xlink="http://www.w3.org/1999/xlink" x="0px" y="0px"
	 viewBox="0 0 167 167" style="enable-background:new 0 0 167 167;" xml:space="preserve">
<style type="text/css">
	.st0{fill:#FF0000;}
	.st1{fill:#C1272D;}
</style>
<g id="Слой_3">
</g>
<g id="Слой_2">
	<path class="st0" d="M49.4,128.5c-1.1,1.5-2.3,3-3.7,4.6c-2.1,2.5-4.2,4.6-6.2,6.5c-4.8-0.4-10.1-0.5-16-0.2
		c-4.6,0.2-8.9,0.7-12.8,1.3c-0.8-0.8-1.9-1.7-3.1-2.5c-0.8-0.5-1.6-1-2.4-1.3c-0.7-0.4-2.3-1.6-3.3-3.8c-0.7-1.7-0.8-3.2-0.7-4
		c0.9-0.7,1.9-1.6,2.9-2.7c1-1.1,1.8-2.1,2.4-3.1c0.1,0.2,0.9,1.6,2.6,1.9c1.2,0.3,2.2-0.2,2.6-0.4c0,0.7,0.4,1.4,1.1,1.7
		c0.7,0.3,1.5,0.2,2-0.4c0.1,0.1,0.5,1,1.5,1.1c0.7,0.1,1.5-0.1,2-0.8c0.2,0.2,0.7,0.6,1.5,0.8c1.1,0.2,1.9-0.5,2-0.6
		c0.2,0.1,0.7,0.6,1.5,0.6c1.2,0,2-1.1,2-1.1c0.2,0.1,0.9,0.5,1.8,0.4c1-0.2,1.5-0.8,1.7-1c0.4,0.1,1.3,0.4,2.4,0
		c1.4-0.5,2-1.9,2.2-2.5c0.2-0.5,0.6-1.5,0.4-2.7c-0.3-1.2-1.1-1.8-0.9-3.1c0-0.3,0.1-0.4,0.2-0.6c0.4-0.7,1.3-0.5,2-0.8
		c1.4-0.5,3.9-5.1,4.2-5.9l10.3-22.7c0.1-0.4,0.9-1.1,1.3-0.6c0.4,0.6,0,2.6,1.3,4.4c1.5,2.1,3.7,2.6,4.2,2.7
		c0.6,0.1,2.5,0.5,4.6-0.6c2.6-1.3,3.5-3.9,3.7-4.4c0.1-0.4,1.2-4.2-1.1-7.3c-1.1-1.5-2.6-2.1-3.3-2.3c-1.1-0.2-3.2-0.6-5.5,0.4
		c-2.8,1.1-4.3,3.4-4.8,4.2c-0.4,0.7-0.8,1.4-1.5,2.7c-0.5,1-0.9,1.7-1.5,3.1c-0.5,1.1-1,2.2-1.5,3.2l-1.3,2.9l-1.7,3.6l-0.6-2.3
		c-0.3-1.1-0.8-2.6-1.7-4.2c-0.6-1.1-1.3-2-1.8-2.7c-0.7-0.9-1.8-2-3.3-3.2c-0.9-0.7-1.7-1.3-4-2.7c-1.4-0.9-3.4-2-5.7-3.2
		c-0.9-0.6-1.8-1.1-2.8-1.7c-0.7-0.5-1.9-1.5-2.8-3.2c-1.4-3.1-0.4-6.1-0.2-6.7c0.7-1.4,1.9-3.3,3.7-5.2c1.9-2,3.9-3.3,5.3-4
		c-0.5,1.4-1.2,3.5-1.3,6.1c-0.1,2,0.1,3.7,0.4,5c0.2,0.9,0.6,2.4,1.7,3.8c1.1,1.6,2.4,2.4,3.7,3.1c2.2,1.2,4.2,1.8,5.7,2.1
		c2.6,0.5,4.6,0.6,5.1,0.6c1.9,0,3.3-0.3,3.7-0.4c1.4-0.3,2.5-0.7,3.3-1c1.2-0.4,1.7-0.7,3.1-1.1c0.5-0.1,1-0.3,1.7-0.4
		c1.7-0.4,2.8-0.5,3.9-0.4c0,0,2.1,0.2,3.4,1.1c0.1,0.1,0.2,0.2,0.3,0.2c1,0.7,1.7,1.6,2,2.1c1.2,1.8,1.4,3.6,1.5,4.8
		c0.1,0.7,0.2,2.9-0.7,5.5c-0.6,1.5-1.6,3-3.5,5.9c-0.6,1-1.2,1.7-1.6,2.3c-1.2,1.7-1.5,2.1-2.3,3.4c-1.3,2.2-2.8,5-2.8,5
		c-2.7,5.3-5.2,11.5-5.5,13.2C49.8,124.1,49.5,126.6,49.4,128.5z"/>
	<path class="st0" d="M19.9,65.4c-0.6,0.7-1.5,1.8-2,3.4c-1,2.8-0.4,5.3-0.2,6.3c0.3,1.1,0.9,2.6,2,4c1.5,1.9,5.9,4.1,6.8,4.6
		l3.1,1.7c1.2,0.5,2.8,1.4,4.4,2.7c2.1,1.7,3.4,3.5,4.2,4.8c0.6,1,1.1,2,1.7,3.1c0.1,0.1,0.1,0.3,0.2,0.5c0,0,0.7,1.6,0.9,3.3
		c0,0.1,0,0.2,0,0.3c0.1,1.4-0.2,2.5-0.4,3.3c-0.2,0.5-0.7,2.2-1.8,4.6c-0.2,0.4-1,2.2-1.8,3.6c-1,1.6-2,2.9-2,2.9s0.5-5.8,0.6-7.1
		c0-1.8-0.6-3.8-0.7-4.2c-0.4-1.2-0.8-2.2-1.1-2.9c0.1-0.4,1.3-4.2-0.6-6.3c-0.2-0.2-0.8-0.9-1.7-1c-1.1-0.1-2.3,0.6-2.9,1.9
		c0-0.2,0-1.1-0.6-1.7c-0.7-0.8-2-1-3.1-0.4c0-0.8-0.3-1.5-0.9-1.9c-0.7-0.4-1.3-0.2-1.5-0.2c0-0.9-0.5-1.8-1.3-2.1
		c-1-0.4-2.4,0.1-2.9,1.3c0.4-1.8-0.3-3.4-1.5-3.8c-0.9-0.3-1.8,0.2-2,0.4c0-0.1-0.2-1.6-1.5-2.3c-0.9-0.5-2.1-0.4-2.9,0.2
		c-0.1-0.3-0.3-1.1-1.1-1.7c-1.2-0.9-2.6-0.4-2.8-0.4c1.4-2.3,2.3-4.4,2.8-5.9c0.6-2,1-3.7,1.1-4.8c0.2-1.9,0.4-3.8,0.6-5.7
		c0.1-1,0.4-2.8,1.7-4.4c0.9-1.1,1.8-1.6,2.4-1.9c4.2-2.2,12.1-5.4,13-3.6c0.2,0.4,0.6,2.5-0.7,3.1c-1.3,0.6-3.1,2.1-3.5,2.5
		C22.2,62.9,20.9,64.3,19.9,65.4z"/>
	<path class="st0" d="M8,83c-0.5,0-1.5,0.2-2.6,1c-1.2,0.9-1.7,2.2-1.8,2.7c-0.3,0.8-0.4,1.7-0.6,2.5c0,0,0,0-0.2,1.1l0,0L5,91.6
		L7.4,92c0.6-1.1,1-2.1,1.3-2.9c0.7-2,1.4-3.9,0.6-5.2C8.9,83.4,8.4,83.2,8,83z"/>
	<path class="st0" d="M10.4,85.3c-0.2,1.1-0.5,2.3-0.9,3.6C9,90.1,8.6,91.1,8.2,92c0.2,0.3,0.4,0.5,0.6,0.8c0.2,0,0.7,0.1,1.1,0.4
		c0.3,0.2,0.6,0.6,0.7,0.8c0.8-0.8,1.4-1.6,1.7-2.1c0.4-0.6,0.8-1.3,1.1-2.3c0.4-1,0.5-2,0.6-2.7c0.1-0.9-0.4-1.7-1.1-2.1
		C11.9,84.3,10.9,84.6,10.4,85.3z"/>
	<path class="st0" d="M14.6,87.4c-0.2,0.9-0.5,2.1-1.1,3.4c-0.4,0.7-0.7,1.4-1.1,1.9c0,0.1-0.1,0.3,0,0.6c0.1,0.3,0.3,0.5,0.4,0.6
		c0.2,0.1,0.5,0.4,0.7,1c0.3,0.7,0.1,1.4,0,1.5c0.5-0.2,1.3-0.5,2-1.1c0.5-0.5,0.9-1,1.1-1.3c0.4-0.7,0.6-1.3,0.7-1.7
		c0.2-0.5,0.5-1.6,0.4-2.9c0-0.5-0.1-0.9-0.2-1.1c0-0.1-0.4-0.9-1.3-1.1C16.1,87,15.3,86.8,14.6,87.4z"/>
	<path class="st0" d="M19.4,89.7c-0.5,0.6-1.1,1.5-1.7,2.7c-0.7,1.6-0.9,3.1-0.9,4c0.1,0.2,0.2,0.6,0.7,1c0.7,0.4,1.4,0.2,1.5,0.2
		c0-1.8,1.1-3.9,2.6-5.5l0.6-0.6c0-1.1-0.7-2-1.5-2.1C20,89.2,19.5,89.6,19.4,89.7z"/>
	<path class="st0" d="M22.1,92c-0.5,0.6-1.4,1.7-1.8,3.2c-0.3,0.9-0.4,1.7-0.4,2.3c0.2,0.2,0.5,0.4,0.9,0.6c0.5,0.2,1,0.3,1.3,0.4
		c0.1,0,0.5,0.2,0.9,0c0.3-0.1,0.5-0.3,0.6-0.4c0.1-0.8,0.7-4.2,0.7-4.2c0.2-1-0.2-1.8-0.9-2.1C22.8,91.6,22.2,91.9,22.1,92z"/>
	<path class="st0" d="M25.2,93.9c-0.3,0.5-0.5,1.1-0.7,1.9c-0.3,1.1-0.2,2-0.2,2.7c0.1,0,0.6-0.2,1.1,0c0.6,0.2,0.8,0.6,0.9,0.8
		c0,0,0.1,0.2,0.4,0.2c0,0,0.2,0,0.4-0.2c0.3-0.5,0.5-1.2,0.7-2.1c0.2-0.9,0.2-1.7,0.2-2.3c-0.2-0.7-0.8-1.2-1.5-1.3
		C25.8,93.4,25.3,93.8,25.2,93.9z"/>
	<path class="st0" d="M29.6,94.7c-0.3,0.5-0.8,1.2-1.1,2.1c-0.4,1.1-0.5,2-0.6,2.7c0.3,0.3,0.6,0.6,0.9,1c0.7,0.8,1.1,1.7,1.3,2.3
		c0.3-0.1,1.3-0.4,2-1.3c0.3-0.4,0.5-0.8,0.6-1.1c0.2-0.6,0.6-1.5,0.6-2.7c0-0.6-0.1-1.1-0.2-1.5c-0.1-1.2-0.9-2-1.8-2.1
		C30.4,93.8,29.7,94.6,29.6,94.7z"/>
	<path class="st0" d="M32.9,101.3c-0.3,0.4-0.8,1-1.5,1.5c-0.5,0.4-0.9,0.6-1.3,0.8c0.1,0.8,0.2,2,0,3.4c-0.2,1.6-0.7,2.8-1.1,3.6
		c-0.3,0.7-0.7,1.4-1.3,2.1c-0.5,0.5-1.3,1.5-2.8,1.9c-1.5,0.4-2.8,0-3.3-0.2c-0.4,0.2-1,0.4-1.8,0.4c-0.4,0-1.1-0.1-1.8-0.4
		c-0.5,0.2-1.4,0.5-2.6,0.6c-1.3,0-2.4-0.3-2.9-0.6c-0.1,0.1-0.5,0.2-0.7,0.6c-0.3,0.4-0.4,0.8-0.4,1c0.1,0.1,0.3,0.2,0.6,0.4
		c0.3,0.3,0.3,0.5,0.6,0.8c0.3,0.4,0.7,0.1,1.5,0.4c0.3,0.1,0.4,0.2,1.7,1c0.3-0.1,0.8-0.3,1.5-0.2c0.7,0.1,1.2,0.4,1.5,0.6
		c0.3-0.2,1-0.4,1.8-0.4c0.7,0,1.3,0.2,1.7,0.4c0.2-0.1,0.6-0.3,0.9-0.4c0.7-0.2,1.2-0.2,1.7-0.2c0.3-0.1,0.6-0.3,1.1-0.4
		c0.7-0.1,1.3-0.1,1.7,0c0.6-0.4,1.1-0.7,1.5-0.8c0.8-0.2,1.1-0.1,1.8-0.4c0.4-0.2,0.5-0.3,1.1-0.8c1.2-0.9,1.4-0.7,1.8-1.1
		c0.4-0.4,0.4-0.6,0.7-4.8c0-0.5,0.1-1.4,0.1-2.5c0-0.4,0-0.7-0.1-1.1C34.2,104.7,33.2,101.7,32.9,101.3z"/>
	<path class="st0" d="M31.8,124.1c-0.1,0.1-0.5,0.7-1.3,0.8c-0.7,0.1-1.2-0.3-1.3-0.4c-0.2-0.7-0.4-1.6-0.7-2.5
		c-0.3-0.8-0.6-1.5-0.9-2.1c0-0.1,0-0.4,0.2-0.8c0.3-0.5,0.8-0.6,0.9-0.6c0.1-0.1,1.3-1,2.6-0.4c1.1,0.5,1.4,1.9,1.5,2.5
		c0.2,1-0.1,1.8-0.2,2.1C32.4,123.3,32,123.8,31.8,124.1z"/>
	<path class="st0" d="M25.2,120.1v5.3c0.1,0.1,0.7,0.5,1.5,0.4c1.1-0.2,1.6-1.3,1.7-1.3c0-0.8-0.1-1.4-0.2-1.9
		c-0.1-0.4-0.4-1.4-1.1-2.3c-0.2-0.3-1-1.2-1.5-1C25.3,119.4,25.3,119.8,25.2,120.1z"/>
	<path class="st0" d="M24.3,120.2c-0.1,0.4-0.2,1-0.2,1.7c0,0.4,0.1,0.8,0.2,1.1c0.1,0.3,0.2,0.8,0.2,1.3c0,0.3,0,0.8-0.2,1.3
		c0,0.1-0.4,0.6-1.1,0.6c-0.1,0-0.7,0-1.1-0.6c0.1-0.4,0.2-0.8,0.2-1.3c0-0.8-0.1-1.4-0.2-1.9c0-0.4,0-0.8,0.2-1.3
		c0.1-0.4,0.2-0.7,0.4-1c0.5-0.7,1.2-1,1.5-0.8C24.3,119.6,24.3,120.1,24.3,120.2z"/>
	<path class="st0" d="M20.1,120.2c0,0,0.2,0.2,0.4,0.2c0.3,0,0.5-0.2,0.6-0.2c0-0.2,0.2-0.4,0.4-0.4s0.4,0.2,0.4,0.4
		c-0.1,0.3-0.1,0.7-0.2,1.1c-0.1,0.7-0.1,1.4,0,1.9c0.1,0.3,0.2,0.7,0.2,1.1c0,0.3,0,0.7-0.2,1.1c-0.2,0.6-0.7,1.1-1.3,1.1
		c-0.7,0.1-1.4-0.4-1.7-1.1c-0.1-0.4-0.2-0.9-0.2-1.5c0-0.5,0.4-2.9,0.6-3.8c0.1-0.2,0.3-0.4,0.6-0.4C19.8,119.9,20,120,20.1,120.2z
		"/>
	<path class="st0" d="M15.9,119.5c0,0,0.3-0.1,0.6,0c0.2,0.1,0.3,0.3,0.4,0.4c0.1,0.1,0.4,0.2,0.7,0.2c0.1,0,0.4,0,0.7-0.2
		c-0.2,0.8-0.3,1.7-0.4,2.8c-0.1,1,0,1.8,0,2.6c0,0.1-0.1,0.7-0.6,1c-0.5,0.3-1.2,0.2-1.7-0.4c-0.2-0.8-0.4-2-0.4-3.4
		C15.4,121.2,15.6,120.2,15.9,119.5z"/>
	<path class="st0" d="M12.4,118.9c0.2-0.1,0.4-0.3,0.7-0.4c0.6-0.1,1.3,0.3,1.8,1c-0.2,0.9-0.3,1.9-0.4,3.1c0,0.9,0,1.7,0,2.5
		c0,0.1,0,0.5-0.4,0.8c-0.4,0.3-1,0.2-1.4-0.4c-0.2-0.1-0.5-0.4-0.7-0.8c-0.2-0.4-0.3-0.7-0.4-1c0-0.6,0.1-1.3,0.2-2.1
		C12,120.6,12.2,119.7,12.4,118.9z"/>
	<path class="st0" d="M9.3,117.2c0,0,0.2-0.6,0.7-0.8c0.5-0.1,0.9,0.2,0.9,0.2c0.2,0.8,0.4,1.5,0.6,2.3c0.1,0.7,0.1,1.5,0,2.5
		c-0.1,1.1-0.3,2-0.6,2.7c-0.1,0.1-0.4,0.5-0.9,0.6c-0.9,0.2-1.6-0.5-1.7-0.6c-0.1-0.6-0.1-1.3,0-2.1c0.1-0.7,0.2-1.4,0.4-1.9
		c0.1-0.4,0.3-0.8,0.4-1.3C9.2,118.1,9.2,117.6,9.3,117.2z"/>
	<path class="st0" d="M8.3,113.2c-0.3-0.3-0.5-0.4-0.7-0.4c-0.3,0-0.5,0.3-0.6,0.4c-0.1,0.1-0.3,0.4-0.4,0.8c-0.1,0.3-0.2,3-0.2,4.4
		c0.1,1.6,0.3,3.1,0.6,4.2c0.3,0.7,0.5,0.8,0.6,0.8c0.4-0.1-0.2-2.8,0.7-5.2c0.1-0.3,0.5-1.1,0.7-2.3c0.1-0.4,0.1-0.7,0.2-1
		c0-0.2-0.1-0.7-0.4-1.1C8.7,113.5,8.5,113.3,8.3,113.2z"/>
	<path class="st0" d="M9.1,112.8c-0.1-0.1-0.1-0.3-0.2-0.4c0.2,0,0.6,0.1,1.1,0c0.4-0.1,0.7-0.3,0.9-0.4c0.1,0.1,0.3,0.3,0.4,0.6
		c0.1,0.4,0,0.7,0,0.8c0.1,1.1,0,1.7-0.2,1.7c-0.1,0-1.1-0.9-1.5-1.3C9.3,113.4,9.2,113,9.1,112.8z"/>
	<path class="st0" d="M11.5,111.7c0.3-0.3,0.4-0.4,0.6-0.4c0.2,0.1,1.4,0.1,1.7,0c0.3-0.1,0.6,0,0.7,0c-0.1,0.3-0.2,0.8-0.2,1.3
		c0,0.3,0,0.8,0.2,1.3c-0.1,0.1-0.2,0.1-0.4,0.2c-0.7,0.3-1.4-0.1-1.7-0.2c0-0.3-0.1-0.8-0.4-1.3C11.8,112.2,11.6,111.9,11.5,111.7z
		"/>
	<path class="st0" d="M14.9,111.7c-0.1-0.2,0-0.5,0.2-0.6c0.2-0.2,1.1,0.2,1.3,0.2c0.8-0.1,1.2-0.6,1.5-0.4c0.1,0,0.2,0.1,0.2,0.4
		c-0.1,0.6-0.2,1.3-0.4,1.9c-0.1,0.2-0.4,0.7-0.9,1c-0.1,0-0.9,0.4-1.3,0c-0.2-0.2-0.2-0.4-0.2-0.6
		C15.2,112.9,15.1,112.3,14.9,111.7z"/>
	<path class="st0" d="M18.8,111.3c-0.1,0.2-0.1,0.6-0.2,1c-0.1,0.6-0.1,1.1,0.2,1.5c0.3,0.5,0.8,0.6,0.9,0.6
		c0.8,0.1,1.4-0.5,1.5-0.6c0.1-0.4,0.3-0.9,0.4-1.5c0-0.4,0-0.7,0-1c-0.1-0.4-0.2-0.5-0.4-0.6c-0.3-0.1-0.6,0.2-1.3,0.4
		C19.5,111.2,19.1,111.3,18.8,111.3z"/>
	<path class="st0" d="M22.7,111.3l-0.9,2.7c0.4,0.2,1.2,0.5,2.2,0.4c0.5-0.1,2-0.6,2.4-1c0.4-0.3,0.6-0.7,0.7-1
		c0-0.1-0.1-0.5-0.4-0.8c-0.2-0.2-0.4-0.3-0.6-0.4c-0.5,0.1-1.2,0.2-2,0.2C23.6,111.4,23.1,111.4,22.7,111.3z"/>
	<polygon class="st0" points="38.8,54 36.6,59.9 30.7,59.9 35.5,63.5 33.8,69.4 38.6,66.2 43.6,69.4 41.9,63.7 46.7,59.9 40.8,59.9 
			"/>
	<ellipse class="st0" cx="57.9" cy="86.5" rx="5.7" ry="6"/>
	<g>
		<path class="st1" d="M54.5,42.9h12.4l-0.4,4.6h-4.2l-2.3,21.3h-3.8l2.3-21.3H54L54.5,42.9z"/>
		<path class="st1" d="M68.7,42.9h10.9l-0.5,4.6h-7.1l-0.6,5.4h7.1l-0.5,4.6H71l-0.7,6.9h7.2L77,68.9H66L68.7,42.9z"/>
		<path class="st1" d="M100.9,46.3l-2.8,3.3c-0.6-0.9-1.3-1.6-2.2-2c-0.9-0.5-1.8-0.7-2.8-0.7c-1.4,0-2.8,0.5-4.1,1.4
			c-1.3,0.9-2.3,2.2-3,3.7C85.3,53.4,85,55,85,56.8c0,2.3,0.6,4.3,1.9,5.9c1.3,1.6,2.9,2.3,4.9,2.3c2.1,0,4-0.8,5.5-2.4l2.2,3.8
			c-2.3,2.1-5,3.1-8,3.1c-2.1,0-3.9-0.5-5.4-1.6c-1.5-1-2.7-2.6-3.6-4.6c-0.9-2-1.4-4.2-1.4-6.5c0-2.5,0.5-4.9,1.6-7.2
			c1.1-2.3,2.5-4.1,4.3-5.4c1.8-1.3,3.8-2,6-2C96.1,42.3,98.7,43.6,100.9,46.3z"/>
		<path class="st1" d="M105.6,42.9h3.8l-1.1,9.8h7l1-9.8h3.8l-2.8,25.9h-3.8l1.3-11.8h-7l-1.3,11.8h-3.8L105.6,42.9z"/>
		<path class="st1" d="M124.8,42.9h3.3l7.3,17.6l1.9-17.6h3.7l-2.8,25.9h-3.2L127.6,51l-1.9,17.8h-3.7L124.8,42.9z"/>
		<path class="st1" d="M155,42.3c2.8,0,5.1,1.1,6.9,3.4c1.8,2.3,2.7,5.2,2.7,8.7c0,2.7-0.5,5.2-1.6,7.6c-1.1,2.4-2.5,4.2-4.3,5.5
			c-1.8,1.3-3.8,1.9-6.1,1.9c-2.9,0-5.2-1.1-6.9-3.3c-1.7-2.2-2.6-5.1-2.6-8.6c0-4.1,1-7.5,3.1-10.5C148.5,43.9,151.4,42.3,155,42.3
			z M154.9,46.9c-1.5,0-2.8,0.4-4,1.3c-1.2,0.9-2.2,2.2-2.9,3.9c-0.7,1.7-1.1,3.4-1.1,5.2c0,2.1,0.5,3.9,1.5,5.4
			c1,1.5,2.5,2.2,4.4,2.2c2.2,0,4.1-1,5.6-3c1.5-2,2.3-4.4,2.3-7.3c0-2.4-0.5-4.3-1.6-5.7C158.1,47.6,156.6,46.9,154.9,46.9z"/>
	</g>
	<g>
		<path class="st1" d="M84.3,81.1l-2.9,3.2c-1.2-1.9-2.3-2.9-3.3-2.9c-0.5,0-0.9,0.2-1.3,0.6c-0.3,0.4-0.5,0.8-0.5,1.4
			c0,0.5,0.2,1,0.5,1.6c0.3,0.6,1.2,1.9,2.8,4c0.8,1.1,1.4,1.9,1.6,2.3c0.6,1.1,1.1,2,1.3,3c0.3,0.9,0.4,1.9,0.4,2.8
			c0,2.1-0.6,3.9-1.8,5.3c-1.2,1.4-2.8,2.2-4.6,2.2c-2.9,0-5.2-1.7-7-5.1l3-3.1c1.2,2.3,2.6,3.5,4,3.5c0.7,0,1.3-0.3,1.7-0.8
			c0.5-0.6,0.7-1.2,0.7-2c0-0.6-0.1-1.2-0.4-1.9c-0.3-0.6-1.1-1.8-2.4-3.6c-1.4-1.9-2.3-3.3-2.8-4.2c-0.6-1.3-0.9-2.5-0.9-3.8
			c0-1.6,0.4-3.1,1.3-4.4c1.1-1.6,2.5-2.4,4.3-2.4C80.6,76.7,82.6,78.2,84.3,81.1z"/>
		<path class="st1" d="M88.9,77.4h3.7c2.3,0,3.8,0.2,4.8,0.7c1.1,0.6,2,1.5,2.6,2.6c0.6,1.1,0.9,2.4,0.9,3.8c0,1.6-0.3,3.1-1,4.4
			c-0.7,1.3-1.6,2.2-2.8,2.8c-1.2,0.6-3.1,0.9-5.8,1L90,103.9h-4L88.9,77.4z M91.7,88c2.2,0,3.6-0.3,4.2-0.8c0.7-0.6,1-1.4,1-2.5
			c0-0.6-0.1-1.1-0.4-1.5c-0.3-0.4-0.6-0.7-1.1-0.9c-0.5-0.2-1.5-0.3-3-0.3L91.7,88z"/>
		<path class="st1" d="M115.1,76.7c2.9,0,5.3,1.2,7.2,3.5c1.9,2.3,2.8,5.3,2.8,8.9c0,2.8-0.6,5.4-1.7,7.8c-1.1,2.4-2.6,4.3-4.5,5.6
			c-1.9,1.3-4,2-6.4,2c-3,0-5.4-1.1-7.2-3.3c-1.8-2.2-2.7-5.2-2.7-8.8c0-4.1,1.1-7.7,3.2-10.7C108.3,78.4,111.3,76.7,115.1,76.7z
			 M114.9,81.4c-1.5,0-2.9,0.5-4.1,1.4c-1.2,0.9-2.3,2.2-3,4c-0.8,1.7-1.1,3.5-1.1,5.3c0,2.2,0.5,4,1.6,5.5c1.1,1.5,2.6,2.3,4.6,2.3
			c2.3,0,4.3-1,5.9-3.1c1.6-2,2.4-4.5,2.4-7.4c0-2.4-0.6-4.3-1.7-5.8C118.2,82.2,116.8,81.4,114.9,81.4z"/>
		<path class="st1" d="M127.3,77.4h12.9l-0.5,4.7h-4.4l-2.4,21.8H129l2.4-21.8h-4.6L127.3,77.4z"/>
	</g>
	<g>
		<path class="st0" d="M107.6,105.7c-0.8-0.4-1.8-1.1-2.8-1.9c-0.9-0.8-1.7-1.6-2.2-2.3c-0.7-1.1-1.5-2.9-2-5.2
			c-0.4-1.7-0.4-3.2-0.4-4.4c-0.5,0.6-1.6,1.5-3.1,2.1c-1.6,0.6-2.9,0.6-3.7,0.6l-1.1,11.1h-8.4c0.1-1,0.1-2,0.2-3.1
			c-0.4,0.5-0.9,1.1-1.7,1.7c-0.6,0.5-1.2,0.9-1.7,1.1c-1.5,0.9-3,1-3.7,1c-1.8,0-3.1-0.6-3.7-1c-0.6-0.2-1.5-0.7-2.4-1.5
			c-0.8-0.8-1.3-1.5-1.7-2.1l-2-3.4c2.2-2.2,4.4-4.3,6.6-6.5c0.4,0.8,0.8,1.5,1.3,2.3c0.4,0.6,0.7,1.3,1.1,1.9
			c0.3,0.4,0.6,0.6,0.7,0.6c0.1-0.1,0-0.5-0.2-1c-0.4-0.7-0.8-1.4-1.3-2.1c-0.4-0.6-0.7-1.2-1.1-1.7c-0.5-0.4-1.1-1.1-1.7-1.9
			c-0.7-1.1-1.1-2.1-1.3-2.9c-0.3-0.9-0.8-2.3-0.7-4.2c0-1.7,0.4-3,0.7-3.8c0.2-0.4,2-4.3,6.1-5c3.5-0.6,7.1,1.4,8.8,5l0.6-4.4
			c2.2,0,4.4,0,6.6,0c0.6-0.1,3.6-0.3,6.2,1.9c2.1,1.7,2.7,4,2.9,4.8c0.6-1.1,1.6-2.8,3.5-4.4c1.7-1.4,3.3-2.1,4.4-2.5
			c1-0.3,2.6-0.6,4.6-0.4c1.5,0.2,2.8,0.6,3.7,1c-0.2-1.4-0.4-2.8-0.7-4h-7.4l1.3-11.6H110l-1.3,11.6h-8.4c0.1-0.8,0.1-1.7,0.2-2.5
			c-4,3.4-9.3,4.3-13.8,2.3c-4.6-2.1-6.4-6.4-6.8-7.4L79,71.2H63.2L65.4,50h-1.3l-2.2,21.4l-8.4,0.2l2-21.4l-4.3-0.1l0.9-9.7h30.1
			c-0.2,2.1-0.4,4.2-0.6,6.3c2.2-4.2,6.2-6.8,10.7-7c6.5-0.2,10.2,5,10.6,5.4l0.1-1.2c-0.1-0.1-0.2-0.2-0.2-0.2
			C97,37.5,90.9,33.6,86,31.1l-8.8-4l-4.2-1.3l-4.6-1l-5.5-0.6h-3.3l-3.7,0.6c-3.6,1.2-4.3,1.4-5.1,1.7c-0.8,0.3-2.5,1.2-4.6,2.7
			c-1.5,1.1-3.5,2.5-5.3,5c-0.9,1.2-3.6,5.2-4.3,5.8c-0.2,0.2-0.9,1-1.1,1.1c0,0,0,0,0,0c-0.3,0.3-0.5,0.5-0.5,0.5l-1.8,1.5
			c-0.7,0.5-1.5,1-2.2,1.5c-1,0.7-1.7,1.5-2,2.7c-0.3,1.1-0.1,2,0,2.5c0.2,1,0.6,1.6,1.3,2.5c0.4,0.6,1.1,1.4,2,2.3
			c0.2,0.1,0.6,0.2,1.1,0.2c0.7,0,1.3-0.4,1.5-0.6c0.5-0.6,1.3-1.5,2.6-2.3c0.7-0.4,2.2-1.3,3.7-1.1c2.6,0.2,4.2,3.5,5,5
			c2.3,4.7,1.3,9.4,1.1,10.1c-0.3,1.2-1.2,4.8-4.2,7.1c-0.7,0.5-2.1,1.6-4.2,1.7c-1.8,0.1-3.2-0.4-3.9-0.8c0,0-2.8-1.4-4.2-4
			c-1.3-2.4-1.3-4.7-1.3-5.7c0,0-0.4,3.3,0,5.9c0.1,0.6,0.5,2.7,1.8,4.6c2.3,3.2,6,3.9,9,4.4c0.4,0.1,3.1,0.5,5.9,0.2
			c1.6-0.2,3.6-0.7,3.7-0.8c0.5-0.1,1-0.3,1.2-0.3c0.9-0.3,1.5-0.5,1.8-0.6c1.3-0.5,2.5-0.7,3.1-0.8c0.8-0.1,2.2-0.4,3.9-0.2
			c1.1,0.1,3.3,0.3,5.1,1.9c2.6,2.2,2.9,5.3,2.9,5.9c0.2,0.9,0.3,2.3,0.2,4c-0.2,2-0.8,3.2-1.7,4.8c-2.1,3.8-4,6.4-5.1,8
			c-1.3,1.9-3.1,4.7-4.8,8.6c1.8-0.7,2-0.8,2-0.8c0.8-0.1,1.9,0.1,3.5,1.9c0.4,0.7,1,1.8,1.8,3.1c1.4,1.9,2.9,4.1,5.5,5
			c0.8,0.3,2.5,0.7,4.8,0.2c0.9-0.1,2.7-0.2,4.8,0.6c2.7,1,4.2,3,4.8,3.8c0.5,0.2,1.4,0.6,2.6,0.6c1.7-0.1,2.9-1,3.3-1.3l2.9-1.9
			l1.1-0.8l2.2-1.5l1.8-1.5l1.8-1.3l1.7-1.3l2-1.7c0.9-0.9,1.7-1.8,2.6-2.7c0.9-1,2.1-2.3,3.4-3.8
			C108.3,106,107.9,105.9,107.6,105.7z"/>
		<path class="st0" d="M92,49.4c-3.3,0.5-4.2,4.7-4.4,5.3c-0.1,0.4-1,4.7,1.5,6.7c1.2,1,2.6,1,2.9,1c1.2,0,2-0.5,2.8-1
			c1.3-0.8,2.2-1.8,2.8-2.7c1.1,1.8,2.2,3.6,3.3,5.3l1.8-16l-4.8,5.5C96.9,50.7,94.3,49.1,92,49.4z"/>
		<path class="st0" d="M116.2,84.2c-1-0.6-2.2-0.5-2.3-0.5c-0.7,0.1-1.1,0.3-1.2,0.3c-0.7,0.5-1.9,1.4-2.8,2.9
			c-1.8,3.1-1.1,6.3-0.9,7.1c0,0.2,0.4,1.9,2,2.7c1.6,0.8,3.4-0.3,3.9-0.6c1.6-1,2.3-2.6,2.7-3.5c0.3-0.7,1-2.5,0.6-4.8
			C118,86.7,117.6,85,116.2,84.2z"/>
		<path class="st0" d="M82.3,87.4c0.5,0.5,1,1.1,1.5,1.9c0.8,1.2,1.2,2.4,1.5,3.2c0.3-3.2,0.6-6.5,0.9-9.7c-0.5,0.7-1.1,1.4-1.7,2.1
			C83.7,85.8,83,86.6,82.3,87.4z"/>
		<rect x="74" y="50" class="st0" width="5.9" height="0.4"/>
		<path class="st0" d="M73.1,59.9L72.7,62h6.6c-0.1-0.3-0.3-0.7-0.4-1.1c-0.1-0.3-0.1-0.7-0.2-1H73.1z"/>
	</g>
</g>
</svg>
