<?xml version="1.0" encoding="utf-8"?>
<!-- Generator: Adobe Illustrator 23.0.2, SVG Export Plug-In . SVG Version: 6.00 Build 0)  -->
<svg version="1.1" id="Слой_3" xmlns="http://www.w3.org/2000/svg" xmlns:xlink="http://www.w3.org/1999/xlink" x="0px" y="0px"
	 viewBox="0 0 44 44" style="enable-background:new 0 0 44 44;" xml:space="preserve">
<style type="text/css">
	.st0{fill:#808080;}
</style>
<g>
	<polygon class="st0" points="4.7,20 4.7,18.5 18.5,18.5 18.5,5.6 20.3,5.6 20.3,20 	"/>
	<path class="st0" d="M19.8,6.1v13.4H5.2V19H18h1v-1v-12H19.8 M20.8,5.1H18v13H4.2v2.4h16.5V5.1L20.8,5.1z"/>
</g>
<g>
	<polygon class="st0" points="23.1,38.7 23.1,23 39.8,23 39.8,24.7 24.9,24.7 24.9,38.7 	"/>
	<path class="st0" d="M39.3,23.5v0.8H25.4h-1v1v12.9h-0.8V23.5H39.3 M40.3,22.5H22.6v16.7h2.8V25.2h14.9V22.5L40.3,22.5z"/>
</g>
<g>
	<polygon class="st0" points="18.7,38.7 18.7,24.7 4.8,24.7 4.8,23 20.3,23 20.3,38.7 	"/>
	<path class="st0" d="M19.8,23.5v14.7h-0.6V25.2v-1h-1H5.3v-0.8H19.8 M20.8,22.5H4.3v2.8h13.9v13.9h2.6V22.5L20.8,22.5z"/>
</g>
<g>
	<polygon class="st0" points="40.3,20.5 22.6,20.5 22.6,5.1 25.4,5.1 25.4,17.9 40.3,17.9 	"/>
</g>
</svg>
